<?xml version="1.0" encoding="UTF-8" standalone="no"?>
<!-- Generated by Microsoft Visio 11.0, SVG Export, v1.0 provide_messaging.svg Page-1 -->
<svg xmlns="http://www.w3.org/2000/svg" xmlns:xlink="http://www.w3.org/1999/xlink" xmlns:ev="http://www.w3.org/2001/xml-events"
		xmlns:v="http://schemas.microsoft.com/visio/2003/SVGExtensions/" width="6.78679in" height="7.91206in"
		viewBox="0 0 488.649 569.668" xml:space="preserve" color-interpolation-filters="sRGB" class="st14">
	<v:documentProperties v:langID="1033" v:metric="true" v:viewMarkup="false">
		<v:userDefs>
			<v:ud v:nameU="msvSubprocessMaster" v:prompt="" v:val="VT4(Rectangle)"/>
			<v:ud v:nameU="msvNoAutoConnect" v:val="VT0(1):26"/>
		</v:userDefs>
	</v:documentProperties>

	<style type="text/css">
	<![CDATA[
		.st1 {fill:#bfbfbf;stroke:#404040;stroke-linecap:round;stroke-linejoin:round;stroke-width:0.25}
		.st2 {visibility:visible}
		.st3 {fill:#cdcdcd;fill-opacity:0.5;stroke:#cdcdcd;stroke-linecap:round;stroke-linejoin:round;stroke-opacity:0.5;stroke-width:0.25}
		.st4 {fill:#ffffff;stroke:#404040;stroke-linecap:round;stroke-linejoin:round;stroke-width:0.25}
		.st5 {fill:#000000;font-family:Arial;font-size:2.50001em}
		.st6 {fill:url(#grad30-18);stroke:#404040;stroke-linecap:round;stroke-linejoin:round;stroke-width:0.25}
		.st7 {fill:url(#grad30-24);stroke:#404040;stroke-linecap:round;stroke-linejoin:round;stroke-width:0.25}
		.st8 {fill:#7f7f7f;stroke:#404040;stroke-linecap:round;stroke-linejoin:round;stroke-width:0.25}
		.st9 {fill:#000000;font-family:Arial;font-size:0.833336em}
		.st10 {fill:url(#grad30-46);stroke:#404040;stroke-linecap:round;stroke-linejoin:round;stroke-width:0.25}
		.st11 {fill:#000000;font-family:Arial;font-size:1.99999em}
		.st12 {font-size:1em}
		.st13 {fill:#92d050;stroke:#404040;stroke-linecap:round;stroke-linejoin:round;stroke-width:0.25}
		.st14 {fill:none;fill-rule:evenodd;font-size:12px;overflow:visible;stroke-linecap:square;stroke-miterlimit:3}
	]]>
	</style>

	<defs id="Patterns_And_Gradients">
		<linearGradient id="grad30-18" v:fillPattern="30" v:foreground="#85ca39" v:background="#92d050" x1="0" y1="1" x2="0" y2="0">
			<stop offset="0" style="stop-color:#85ca39;stop-opacity:1"/>
			<stop offset="1" style="stop-color:#92d050;stop-opacity:1"/>
		</linearGradient>
		<linearGradient id="grad30-24" v:fillPattern="30" v:foreground="#f0f0f0" v:background="#ffffff" x1="0" y1="1" x2="0" y2="0">
			<stop offset="0" style="stop-color:#f0f0f0;stop-opacity:1"/>
			<stop offset="1" style="stop-color:#ffffff;stop-opacity:1"/>
		</linearGradient>
		<linearGradient id="grad30-46" v:fillPattern="30" v:foreground="#717171" v:background="#7f7f7f" x1="0" y1="1" x2="0" y2="0">
			<stop offset="0" style="stop-color:#717171;stop-opacity:1"/>
			<stop offset="1" style="stop-color:#7f7f7f;stop-opacity:1"/>
		</linearGradient>
	</defs>
	<g v:mID="0" v:index="1" v:groupContext="foregroundPage">
		<v:userDefs>
			<v:ud v:nameU="msvThemeColors" v:val="VT0(36):26"/>
			<v:ud v:nameU="msvThemeEffects" v:val="VT0(16):26"/>
			<v:ud v:nameU="msvThemeOrder" v:val="VT0(0):26"/>
		</v:userDefs>
		<title>Page-1</title>
		<v:pageProperties v:drawingScale="0.0393701" v:pageScale="0.0393701" v:drawingUnits="24" v:shadowOffsetX="8.50394"
				v:shadowOffsetY="-8.50394"/>
		<g id="group10-1" transform="translate(18.25,-19.69)" v:mID="10" v:groupContext="group">
			<v:userDefs>
				<v:ud v:nameU="msvThemeColors" v:val="VT0(36):26"/>
				<v:ud v:nameU="msvThemeEffects" v:val="VT0(16):26"/>
			</v:userDefs>
			<title>Sheet.10</title>
			<g id="shape3-2" v:mID="3" v:groupContext="shape" transform="translate(45.9068,-136.216)">
				<title>Circle.3</title>
				<v:userDefs>
					<v:ud v:nameU="visVersion" v:val="VT0(14):26"/>
					<v:ud v:nameU="msvThemeColors" v:val="VT0(36):26"/>
					<v:ud v:nameU="msvThemeEffects" v:val="VT0(16):26"/>
				</v:userDefs>
				<path d="M0 386.31 A183.355 183.355 0 0 1 366.71 386.31 A183.355 183.355 0 1 1 -0 386.31 Z" class="st1"/>
			</g>
			<g id="shape2-4" v:mID="2" v:groupContext="shape" transform="translate(56.4692,-147.554)">
				<title>Circle.2</title>
				<v:userDefs>
					<v:ud v:nameU="visVersion" v:val="VT0(14):26"/>
					<v:ud v:nameU="msvThemeColors" v:val="VT0(36):26"/>
					<v:ud v:nameU="msvThemeEffects" v:val="VT0(16):26"/>
				</v:userDefs>
				<g id="shadow2-5" v:groupContext="shadow" v:shadowOffsetX="1.44" v:shadowOffsetY="-1.44" v:shadowType="1"
						transform="matrix(1,0,0,1,1.44,1.44)" class="st2">
					<path d="M0 397.77 A171.895 171.895 0 1 1 343.79 397.77 A171.895 171.895 0 1 1 0 397.77 Z" class="st3"/>
				</g>
				<path d="M0 397.77 A171.895 171.895 0 1 1 343.79 397.77 A171.895 171.895 0 1 1 0 397.77 Z" class="st4"/>
			</g>
			<g id="shape15-8" v:mID="15" v:groupContext="shape">
				<title>Rectangle</title>
				<desc>Key:</desc>
				<v:userDefs>
					<v:ud v:nameU="visVersion" v:val="VT0(14):26"/>
					<v:ud v:nameU="msvThemeColors" v:val="VT0(36):26"/>
					<v:ud v:nameU="msvThemeEffects" v:val="VT0(16):26"/>
				</v:userDefs>
				<v:textBlock v:margins="rect(4,4,4,4)" v:tabSpace="42.5197"/>
				<v:textRect cx="225.354" cy="535.29" width="450.71" height="68.758"/>
				<g id="shadow15-9" v:groupContext="shadow" v:shadowOffsetX="1.44" v:shadowOffsetY="-1.44" v:shadowType="1"
						transform="matrix(1,0,0,1,1.44,1.44)" class="st2">
					<rect x="0" y="500.911" width="450.709" height="68.758" class="st3"/>
				</g>
				<rect x="0" y="500.911" width="450.709" height="68.758" class="st1"/>
				<text x="4" y="544.29" class="st5" v:langID="2057"><v:paragraph/><v:tabList/>Key:</text>			</g>
			<g id="shape16-13" v:mID="16" v:groupContext="shape" transform="translate(69.6386,-19.995)">
				<title>Circle.16</title>
				<v:userDefs>
					<v:ud v:nameU="visVersion" v:val="VT0(14):26"/>
					<v:ud v:nameU="msvThemeColors" v:val="VT0(36):26"/>
					<v:ud v:nameU="msvThemeEffects" v:val="VT0(16):26"/>
				</v:userDefs>
				<g id="shadow16-14" v:groupContext="shadow" v:shadowOffsetX="1.44" v:shadowOffsetY="-1.44" v:shadowType="1"
						transform="matrix(1,0,0,1,1.44,1.44)" class="st2">
					<path d="M0 555.51 A14.1587 14.1587 0 0 1 28.32 555.51 A14.1587 14.1587 0 1 1 0 555.51 Z" class="st3"/>
				</g>
				<path d="M0 555.51 A14.1587 14.1587 0 0 1 28.32 555.51 A14.1587 14.1587 0 1 1 0 555.51 Z" class="st6"/>
			</g>
			<g id="shape17-19" v:mID="17" v:groupContext="shape" transform="translate(194,-18.8782)">
				<title>Circle.17</title>
				<v:userDefs>
					<v:ud v:nameU="visVersion" v:val="VT0(14):26"/>
					<v:ud v:nameU="msvThemeColors" v:val="VT0(36):26"/>
					<v:ud v:nameU="msvThemeEffects" v:val="VT0(16):26"/>
				</v:userDefs>
				<g id="shadow17-20" v:groupContext="shadow" v:shadowOffsetX="1.44" v:shadowOffsetY="-1.44" v:shadowType="1"
						transform="matrix(1,0,0,1,1.44,1.44)" class="st2">
					<path d="M0 554.94 A14.7317 14.7317 0 0 1 29.46 554.94 A14.7317 14.7317 0 1 1 0 554.94 Z" class="st3"/>
				</g>
				<path d="M0 554.94 A14.7317 14.7317 0 0 1 29.46 554.94 A14.7317 14.7317 0 1 1 0 554.94 Z" class="st7"/>
			</g>
			<g id="shape18-25" v:mID="18" v:groupContext="shape" transform="translate(327.577,-19.5227)">
				<title>Circle.18</title>
				<v:userDefs>
					<v:ud v:nameU="visVersion" v:val="VT0(14):26"/>
					<v:ud v:nameU="msvThemeColors" v:val="VT0(36):26"/>
					<v:ud v:nameU="msvThemeEffects" v:val="VT0(16):26"/>
				</v:userDefs>
				<g id="shadow18-26" v:groupContext="shadow" v:shadowOffsetX="1.44" v:shadowOffsetY="-1.44" v:shadowType="1"
						transform="matrix(1,0,0,1,1.44,1.44)" class="st2">
					<path d="M0 555.26 A14.4094 14.4094 0 0 1 28.82 555.26 A14.4094 14.4094 0 1 1 0 555.26 Z" class="st3"/>
				</g>
				<path d="M0 555.26 A14.4094 14.4094 0 0 1 28.82 555.26 A14.4094 14.4094 0 1 1 0 555.26 Z" class="st8"/>
			</g>
			<g id="shape19-29" v:mID="19" v:groupContext="shape" transform="translate(109.309,-19.995)">
				<title>Rectangle.19</title>
				<desc>Provided</desc>
				<v:userDefs>
					<v:ud v:nameU="visVersion" v:val="VT0(14):26"/>
					<v:ud v:nameU="msvThemeColors" v:val="VT0(36):26"/>
					<v:ud v:nameU="msvThemeEffects" v:val="VT0(16):26"/>
				</v:userDefs>
				<v:textBlock v:margins="rect(4,4,4,4)" v:tabSpace="42.5197"/>
				<v:textRect cx="35.8768" cy="555.83" width="71.76" height="27.6764"/>
				<g id="shadow19-30" v:groupContext="shadow" v:shadowOffsetX="1.44" v:shadowOffsetY="-1.44" v:shadowType="1"
						transform="matrix(1,0,0,1,1.44,1.44)" class="st2">
					<rect x="0" y="541.992" width="71.7537" height="27.6764" class="st3"/>
				</g>
				<rect x="0" y="541.992" width="71.7537" height="27.6764" class="st6"/>
				<text x="16.14" y="558.83" class="st9" v:langID="2057"><v:paragraph v:horizAlign="1"/><v:tabList/>Provided</text>			</g>
			<g id="shape20-35" v:mID="20" v:groupContext="shape" transform="translate(236.868,-18.3355)">
				<title>Rectangle.20</title>
				<desc>Explained</desc>
				<v:userDefs>
					<v:ud v:nameU="visVersion" v:val="VT0(14):26"/>
					<v:ud v:nameU="msvThemeColors" v:val="VT0(36):26"/>
					<v:ud v:nameU="msvThemeEffects" v:val="VT0(16):26"/>
				</v:userDefs>
				<v:textBlock v:margins="rect(4,4,4,4)" v:tabSpace="42.5197"/>
				<v:textRect cx="37.9904" cy="555.015" width="75.99" height="29.3069"/>
				<g id="shadow20-36" v:groupContext="shadow" v:shadowOffsetX="1.44" v:shadowOffsetY="-1.44" v:shadowType="1"
						transform="matrix(1,0,0,1,1.44,1.44)" class="st2">
					<rect x="0" y="540.362" width="75.9808" height="29.3069" class="st3"/>
				</g>
				<rect x="0" y="540.362" width="75.9808" height="29.3069" class="st7"/>
				<text x="16.03" y="558.02" class="st9" v:langID="2057"><v:paragraph v:horizAlign="1"/><v:tabList/>Explained</text>			</g>
			<g id="shape21-41" v:mID="21" v:groupContext="shape" transform="translate(370.096,-18.9176)">
				<title>Rectangle.21</title>
				<desc>Local Decision</desc>
				<v:userDefs>
					<v:ud v:nameU="visVersion" v:val="VT0(14):26"/>
					<v:ud v:nameU="msvThemeColors" v:val="VT0(36):26"/>
					<v:ud v:nameU="msvThemeEffects" v:val="VT0(16):26"/>
				</v:userDefs>
				<v:textBlock v:margins="rect(4,4,4,4)" v:tabSpace="42.5197"/>
				<v:textRect cx="37.2693" cy="555.293" width="74.54" height="28.7506"/>
				<g id="shadow21-42" v:groupContext="shadow" v:shadowOffsetX="1.44" v:shadowOffsetY="-1.44" v:shadowType="1"
						transform="matrix(1,0,0,1,1.44,1.44)" class="st2">
					<rect x="0" y="540.918" width="74.5386" height="28.7506" class="st3"/>
				</g>
				<rect x="0" y="540.918" width="74.5386" height="28.7506" class="st10"/>
				<text x="4.75" y="558.29" class="st9" v:langID="2057"><v:paragraph v:horizAlign="1"/><v:tabList/>Local Decision</text>			</g>
		</g>
		<g id="shape1-48" v:mID="1" v:groupContext="shape" transform="translate(161.575,-242.362)">
			<title>ITK3 Messaging Solution</title>
			<desc>ITK3 Messaging Solution</desc>
			<v:userDefs>
				<v:ud v:nameU="visVersion" v:val="VT0(14):26"/>
				<v:ud v:nameU="msvThemeColors" v:val="VT0(36):26"/>
				<v:ud v:nameU="msvThemeEffects" v:val="VT0(16):26"/>
			</v:userDefs>
			<v:textBlock v:margins="rect(4,4,4,4)" v:tabSpace="42.5197"/>
			<v:textRect cx="88.5827" cy="481.086" width="155.02" height="132.874"/>
			<path d="M0 481.09 A88.5827 88.5827 0 0 1 177.17 481.09 A88.5827 88.5827 0 1 1 0 481.09 Z" class="st4"/>
			<text x="30.55" y="473.89" class="st11" v:langID="2057"><v:paragraph v:horizAlign="1"/><v:tabList/>Messaging<v:newlineChar/><tspan
						x="45.22" dy="1.2em" class="st12">Solution</tspan></text>		</g>
		<g id="shape22-52" v:mID="22" v:groupContext="shape" transform="translate(95.6693,-432.283)">
			<title>Endpoint</title>
			<desc>Endpoint</desc>
			<v:userDefs>
				<v:ud v:nameU="visVersion" v:val="VT0(14):26"/>
				<v:ud v:nameU="msvThemeColors" v:val="VT0(36):26"/>
				<v:ud v:nameU="msvThemeEffects" v:val="VT0(16):26"/>
			</v:userDefs>
			<v:textBlock v:margins="rect(4,4,4,4)" v:tabSpace="42.5197"/>
			<v:textRect cx="46.063" cy="523.606" width="80.62" height="69.0945"/>
			<path d="M0 523.61 A46.063 46.063 0 0 1 92.13 523.61 A46.063 46.063 0 1 1 0 523.61 Z" class="st8"/>
			<text x="26.32" y="526.61" class="st9" v:langID="2057"><v:paragraph v:horizAlign="1"/><v:tabList/>Endpoint</text>		</g>
		<g id="shape14-55" v:mID="14" v:groupContext="shape" transform="translate(304.724,-432.283)">
			<title>Transform</title>
			<desc>Transform</desc>
			<v:userDefs>
				<v:ud v:nameU="visVersion" v:val="VT0(14):26"/>
				<v:ud v:nameU="msvThemeColors" v:val="VT0(36):26"/>
				<v:ud v:nameU="msvThemeEffects" v:val="VT0(16):26"/>
			</v:userDefs>
			<v:textBlock v:margins="rect(4,4,4,4)" v:tabSpace="42.5197"/>
			<v:textRect cx="46.063" cy="523.606" width="80.62" height="69.0945"/>
			<path d="M0 523.61 A46.063 46.063 0 0 1 92.13 523.61 A46.063 46.063 0 1 1 0 523.61 Z" class="st8"/>
			<text x="23.28" y="526.61" class="st9" v:langID="2057"><v:paragraph v:horizAlign="1"/><v:tabList/>Transform</text>		</g>
		<g id="shape5-58" v:mID="5" v:groupContext="shape" transform="translate(364.961,-340.157)">
			<title>Traffic Management</title>
			<desc>Traffic Management</desc>
			<v:userDefs>
				<v:ud v:nameU="visVersion" v:val="VT0(14):26"/>
				<v:ud v:nameU="msvThemeColors" v:val="VT0(36):26"/>
				<v:ud v:nameU="msvThemeEffects" v:val="VT0(16):26"/>
			</v:userDefs>
			<v:textBlock v:margins="rect(4,4,4,4)" v:tabSpace="42.5197"/>
			<v:textRect cx="46.063" cy="523.606" width="80.62" height="69.0945"/>
			<path d="M0 523.61 A46.063 46.063 0 0 1 92.13 523.61 A46.063 46.063 0 1 1 0 523.61 Z" class="st8"/>
			<text x="32.17" y="520.61" class="st9" v:langID="2057"><v:paragraph v:horizAlign="1"/><v:tabList/>Traffic<v:newlineChar/><tspan
						x="16.88" dy="1.2em" class="st12">Management</tspan></text>		</g>
		<a xlink:href="..\explore_messaging_versioning">
			<g id="shape6-62" v:mID="6" v:groupContext="shape" transform="translate(364.961,-233.858)">
				<title>Versioning</title>
				<desc>Versioning</desc>
				<v:userDefs>
					<v:ud v:nameU="visVersion" v:val="VT0(14):26"/>
					<v:ud v:nameU="msvThemeColors" v:val="VT0(36):26"/>
					<v:ud v:nameU="msvThemeEffects" v:val="VT0(16):26"/>
				</v:userDefs>
				<v:textBlock v:margins="rect(4,4,4,4)" v:tabSpace="42.5197"/>
				<v:textRect cx="46.063" cy="523.606" width="80.62" height="69.0945"/>
				<path d="M0 523.61 A46.063 46.063 0 0 1 92.13 523.61 A46.063 46.063 0 1 1 0 523.61 Z" class="st13"/>
				<text x="22.44" y="526.61" class="st9" v:langID="2057"><v:paragraph v:horizAlign="1"/><v:tabList/>Versioning</text>			</g>
		</a>
		<a xlink:href="..\engage.html">
			<g id="shape7-65" v:mID="7" v:groupContext="shape" transform="translate(297.638,-148.819)">
				<title>Engage</title>
				<desc>Engage</desc>
				<v:userDefs>
					<v:ud v:nameU="visVersion" v:val="VT0(14):26"/>
					<v:ud v:nameU="msvThemeColors" v:val="VT0(36):26"/>
					<v:ud v:nameU="msvThemeEffects" v:val="VT0(16):26"/>
				</v:userDefs>
				<v:textBlock v:margins="rect(4,4,4,4)" v:tabSpace="42.5197"/>
				<v:textRect cx="46.063" cy="523.606" width="80.62" height="69.0945"/>
				<path d="M0 523.61 A46.063 46.063 0 0 1 92.13 523.61 A46.063 46.063 0 1 1 0 523.61 Z" class="st13"/>
				<text x="28.82" y="526.61" class="st9" v:langID="2057"><v:paragraph v:horizAlign="1"/><v:tabList/>Engage</text>			</g>
		</a>
		<a xlink:href="..\explore.html">
			<g id="shape8-68" v:mID="8" v:groupContext="shape" transform="translate(199.843,-118.346)">
				<title>ITK3 Messaging Solution Documentation</title>
				<desc>ITK3 Messaging Solution Documentation</desc>
				<v:userDefs>
					<v:ud v:nameU="visVersion" v:val="VT0(14):26"/>
					<v:ud v:nameU="msvThemeColors" v:val="VT0(36):26"/>
					<v:ud v:nameU="msvThemeEffects" v:val="VT0(16):26"/>
				</v:userDefs>
				<v:textBlock v:margins="rect(4,4,4,4)" v:tabSpace="42.5197"/>
				<v:textRect cx="46.063" cy="523.606" width="80.62" height="69.0945"/>
				<path d="M0 523.61 A46.063 46.063 0 0 1 92.13 523.61 A46.063 46.063 0 1 1 0 523.61 Z" class="st13"/>
				<text x="21.88" y="514.61" class="st9" v:langID="2057"><v:paragraph v:horizAlign="1"/><v:tabList/>Messaging<v:newlineChar/><tspan
							x="27.99" dy="1.2em" class="st12">Solution<v:newlineChar/></tspan><tspan x="12.43" dy="1.2em"
							class="st12">Documentation</tspan></text>			</g>
		</a>
		<g id="shape9-73" v:mID="9" v:groupContext="shape" transform="translate(92.126,-144.567)">
			<title>Report &#38; Monitor</title>
			<desc>Report &#38; Monitor</desc>
			<v:userDefs>
				<v:ud v:nameU="visVersion" v:val="VT0(14):26"/>
				<v:ud v:nameU="msvThemeColors" v:val="VT0(36):26"/>
				<v:ud v:nameU="msvThemeEffects" v:val="VT0(16):26"/>
			</v:userDefs>
			<v:textBlock v:margins="rect(4,4,4,4)" v:tabSpace="42.5197"/>
			<v:textRect cx="46.063" cy="523.606" width="80.62" height="69.0945"/>
			<path d="M0 523.61 A46.063 46.063 0 0 1 92.13 523.61 A46.063 46.063 0 1 1 0 523.61 Z" class="st8"/>
			<text x="26.33" y="520.61" class="st9" v:langID="2057"><v:paragraph v:horizAlign="1"/><v:tabList/>Report &#38; <tspan
						x="29.39" dy="1.2em" class="st12">Monitor</tspan></text>		</g>
		<a xlink:href="..\design_patterns">
			<g id="shape11-77" v:mID="11" v:groupContext="shape" transform="translate(39.685,-238.11)">
				<title>Patterns / Topology</title>
				<desc>Patterns / Topology</desc>
				<v:userDefs>
					<v:ud v:nameU="visVersion" v:val="VT0(14):26"/>
					<v:ud v:nameU="msvThemeColors" v:val="VT0(36):26"/>
					<v:ud v:nameU="msvThemeEffects" v:val="VT0(16):26"/>
				</v:userDefs>
				<v:textBlock v:margins="rect(4,4,4,4)" v:tabSpace="42.5197"/>
				<v:textRect cx="46.063" cy="523.606" width="80.62" height="69.0945"/>
				<path d="M0 523.61 A46.063 46.063 0 0 1 92.13 523.61 A46.063 46.063 0 1 1 0 523.61 Z" class="st4"/>
				<text x="24.66" y="520.61" class="st9" v:langID="2057"><v:paragraph v:horizAlign="1"/><v:tabList/>Patterns / <tspan
							x="25.49" dy="1.2em" class="st12">Topology</tspan></text>			</g>
		</a>
		<a xlink:href="design_access.html">
			<g id="shape12-81" v:mID="12" v:groupContext="shape" transform="translate(29.7638,-345.827)">
				<title>Access</title>
				<desc>Access</desc>
				<v:userDefs>
					<v:ud v:nameU="visVersion" v:val="VT0(14):26"/>
					<v:ud v:nameU="msvThemeColors" v:val="VT0(36):26"/>
					<v:ud v:nameU="msvThemeEffects" v:val="VT0(16):26"/>
				</v:userDefs>
				<v:textBlock v:margins="rect(4,4,4,4)" v:tabSpace="42.5197"/>
				<v:textRect cx="46.063" cy="523.606" width="80.62" height="69.0945"/>
				<path d="M0 523.61 A46.063 46.063 0 0 1 92.13 523.61 A46.063 46.063 0 1 1 0 523.61 Z" class="st4"/>
				<text x="29.95" y="526.61" class="st9" v:langID="2057"><v:paragraph v:horizAlign="1"/><v:tabList/>Access</text>			</g>
		</a>
		<a xlink:href="..\design_security.html" xlink:title="Security">
			<g id="shape4-84" v:mID="4" v:groupContext="shape" transform="translate(200.551,-464.173)">
				<title>Security</title>
				<desc>Security</desc>
				<v:userDefs>
					<v:ud v:nameU="visVersion" v:val="VT0(14):26"/>
					<v:ud v:nameU="msvThemeColors" v:val="VT0(36):26"/>
					<v:ud v:nameU="msvThemeEffects" v:val="VT0(16):26"/>
				</v:userDefs>
				<v:textBlock v:margins="rect(4,4,4,4)" v:tabSpace="42.5197"/>
				<v:textRect cx="46.063" cy="523.606" width="80.62" height="69.0945"/>
				<path d="M0 523.61 A46.063 46.063 0 0 1 92.13 523.61 A46.063 46.063 0 1 1 0 523.61 Z" class="st4"/>
				<text x="28" y="526.61" class="st9" v:langID="2057"><v:paragraph v:horizAlign="1"/><v:tabList/>Security</text>			</g>
		</a>
	</g>
</svg>
